<?xml version="1.0" encoding="utf-8"?>
<!-- Generator: Adobe Illustrator 16.0.0, SVG Export Plug-In . SVG Version: 6.00 Build 0)  -->
<!DOCTYPE svg PUBLIC "-//W3C//DTD SVG 1.1//EN" "http://www.w3.org/Graphics/SVG/1.1/DTD/svg11.dtd">
<svg version="1.1" id="Capa_1" xmlns="http://www.w3.org/2000/svg" xmlns:xlink="http://www.w3.org/1999/xlink" x="0px" y="0px"
	 width="927.48px" height="512px" viewBox="0 0 927.48 512" enable-background="new 0 0 927.48 512" xml:space="preserve">
<g>
	<path fill="#282828" d="M263.709,0H48.29C27.673,0,11.03,16.717,11.03,37.296v437.445C11.03,495.302,27.673,512,48.29,512h215.419
		c20.58,0,37.261-16.698,37.261-37.259V37.296C300.969,16.717,284.289,0,263.709,0z M102.845,22.65h106.348
		c2.688,0,4.869,4.011,4.869,8.974s-2.184,8.993-4.869,8.993H102.845c-2.706,0-4.853-4.03-4.853-8.993S100.139,22.65,102.845,22.65z
		 M156.019,475.188c-13.116,0-23.788-10.672-23.788-23.807s10.672-23.77,23.788-23.77c13.079,0,23.751,10.635,23.751,23.77
		S169.098,475.188,156.019,475.188z M273.057,393.674H38.961V62.932h234.097V393.674L273.057,393.674z"/>
</g>
<g>
	<path fill="#282828" d="M831.71,0H616.29c-20.616,0-37.261,16.717-37.261,37.296v437.445c0,20.561,16.645,37.259,37.261,37.259
		h215.42c20.579,0,37.26-16.698,37.26-37.259V37.296C868.969,16.717,852.289,0,831.71,0z M670.845,22.65h106.348
		c2.688,0,4.869,4.011,4.869,8.974s-2.183,8.993-4.869,8.993H670.845c-2.706,0-4.853-4.03-4.853-8.993S668.139,22.65,670.845,22.65z
		 M724.019,475.188c-13.116,0-23.788-10.672-23.788-23.807s10.672-23.77,23.788-23.77c13.079,0,23.751,10.635,23.751,23.77
		S737.098,475.188,724.019,475.188z M841.057,393.674H606.962V62.932h234.096V393.674L841.057,393.674z"/>
</g>
<path fill="#282828" d="M480.799,181.663c-2.971-3.074-7.913-3.074-10.987,0c-2.97,2.97-2.97,7.913,0,10.876l55.708,55.708H341.691
	c-4.285,0.007-7.691,3.413-7.691,7.698c0,4.286,3.406,7.801,7.691,7.801h183.829l-55.708,55.604c-2.97,3.074-2.97,8.023,0,10.987
	c3.074,3.073,8.023,3.073,10.987,0l68.896-68.896c3.074-2.97,3.074-7.913,0-10.876L480.799,181.663z"/>
</svg>
