<?xml version="1.0" encoding="utf-8"?>
<!-- Generator: Adobe Illustrator 16.0.0, SVG Export Plug-In . SVG Version: 6.00 Build 0)  -->
<!DOCTYPE svg PUBLIC "-//W3C//DTD SVG 1.1//EN" "http://www.w3.org/Graphics/SVG/1.1/DTD/svg11.dtd">
<svg version="1.1" id="Capa_1" xmlns="http://www.w3.org/2000/svg" xmlns:xlink="http://www.w3.org/1999/xlink" x="0px" y="0px"
	 width="1027.482px" height="512px" viewBox="0 0 1027.482 512" enable-background="new 0 0 1027.482 512" xml:space="preserve">
<g>
	<path fill="#282828" d="M263.709,0H48.29C27.673,0,11.03,16.717,11.03,37.296v437.445C11.03,495.302,27.673,512,48.29,512h215.419
		c20.58,0,37.261-16.698,37.261-37.259V37.296C300.969,16.717,284.289,0,263.709,0z M102.845,22.65h106.348
		c2.688,0,4.869,4.011,4.869,8.974s-2.184,8.993-4.869,8.993H102.845c-2.706,0-4.853-4.03-4.853-8.993S100.139,22.65,102.845,22.65z
		 M156.019,475.188c-13.116,0-23.788-10.672-23.788-23.807s10.672-23.77,23.788-23.77c13.079,0,23.751,10.635,23.751,23.77
		S169.098,475.188,156.019,475.188z M273.057,393.674H38.961V62.932h234.097V393.674L273.057,393.674z"/>
</g>
<g>
	<path fill="#282828" d="M734.599,179.836l-98.622-98.674c12.729-12.729,25.435-25.484,38.188-38.238
		c5.897-5.896,15.413-5.998,21.336-0.177l76.832,76.909c5.87,5.871,5.87,15.539-0.075,21.46l-16.83,16.804l-15.664,15.666
		C737.839,175.533,736.093,177.608,734.599,179.836z M815.735,340.563c-16.146-13.896-31.634-28.646-46.668-43.654
		c-15.005-15.108-29.71-30.547-43.629-46.768c-11.389-13.159-13.614-32.216-7.667-48.26L616.539,100.623
		c-23.56,24.22-20.549,84.274,5.266,137.04c11.084,22.826,25.459,43.427,40.313,63.015c14.83,19.436,31.104,37.811,48.236,55.068
		c17.183,17.232,35.454,33.582,54.941,48.414c19.587,14.904,40.235,29.179,62.913,40.234
		c52.843,25.789,112.921,28.623,137.113,5.036L864.071,348.18C848.026,354.126,828.944,351.925,815.735,340.563z M1023.128,370.449
		l-76.833-76.857c-5.897-5.82-15.563-5.82-21.462,0.076h-0.052l-16.88,16.854l-15.563,15.641c-1.925,1.925-4.023,3.618-6.25,5.188
		l98.598,98.647c12.753-12.78,25.485-25.485,38.265-38.214C1028.898,385.889,1029.025,376.348,1023.128,370.449z"/>
</g>
<path fill="#282828" d="M505.902,171.625c-3.371-3.489-8.98-3.489-12.47,0c-3.371,3.371-3.371,8.981,0,12.345l63.229,63.23H348.011
	c-4.864,0.008-8.729,3.874-8.729,8.738c0,4.863,3.866,8.854,8.729,8.854h208.651l-63.229,63.112c-3.371,3.489-3.371,9.107,0,12.471
	c3.489,3.488,9.106,3.488,12.47,0l78.199-78.199c3.489-3.37,3.489-8.981,0-12.344L505.902,171.625z"/>
</svg>
