<?xml version="1.0" encoding="utf-8"?>
<!-- Generator: Adobe Illustrator 16.0.0, SVG Export Plug-In . SVG Version: 6.00 Build 0)  -->
<!DOCTYPE svg PUBLIC "-//W3C//DTD SVG 1.1//EN" "http://www.w3.org/Graphics/SVG/1.1/DTD/svg11.dtd">
<svg version="1.1" id="Capa_1" xmlns="http://www.w3.org/2000/svg" xmlns:xlink="http://www.w3.org/1999/xlink" x="0px" y="0px"
	 width="512px" height="512px" viewBox="0 0 512 512" enable-background="new 0 0 512 512" xml:space="preserve">
<g>
	<g>
		<g>
			<path fill="#FFFFFF" d="M441.779,368.924l-60.075-60.081c-11.967-11.918-31.782-11.556-44.164,0.831l-30.266,30.259
				c-1.913-1.053-3.893-2.154-5.973-3.322c-19.113-10.59-45.271-25.104-72.799-52.651c-27.608-27.605-42.136-53.804-52.759-72.93
				c-1.121-2.026-2.195-3.979-3.255-5.835l20.313-20.282l9.987-9.999c12.402-12.406,12.743-32.215,0.806-44.168l-60.075-60.088
				c-11.938-11.936-31.763-11.573-44.165,0.832L82.423,88.517l0.462,0.459c-5.677,7.244-10.421,15.599-13.952,24.609
				c-3.254,8.576-5.28,16.76-6.207,24.961c-7.933,65.762,22.119,125.864,103.674,207.42
				c112.734,112.727,203.584,104.211,207.503,103.796c8.536-1.021,16.717-3.061,25.031-6.289c8.93-3.489,17.28-8.226,24.52-13.892
				l0.369,0.329l17.153-16.796C453.354,400.712,453.71,380.895,441.779,368.924z"/>
		</g>
	</g>
</g>
</svg>
