<?xml version="1.0" encoding="utf-8"?>
<!-- Generator: Adobe Illustrator 16.0.0, SVG Export Plug-In . SVG Version: 6.00 Build 0)  -->
<!DOCTYPE svg PUBLIC "-//W3C//DTD SVG 1.1//EN" "http://www.w3.org/Graphics/SVG/1.1/DTD/svg11.dtd">
<svg version="1.1" id="Capa_1" xmlns="http://www.w3.org/2000/svg" xmlns:xlink="http://www.w3.org/1999/xlink" x="0px" y="0px"
	 width="512px" height="512px" viewBox="0 0 512 512" enable-background="new 0 0 512 512" xml:space="preserve">
<g>
	<g id="call-end">
		<path fill="#FF2E63" d="M256,203.733c-34.134,0-66.134,6.4-98.134,14.933V284.8c0,8.532-4.267,14.934-12.8,19.199
			c-21.333,10.667-40.533,23.468-57.6,40.534c-4.267,4.267-8.534,6.399-14.934,6.399c-6.4,0-10.667-2.134-14.934-6.399L4.267,291.2
			C2.133,286.934,0,282.666,0,276.267S2.133,265.6,6.4,261.332C70.4,199.466,160,161.066,256,161.066s185.6,38.4,249.6,100.266
			c4.268,4.268,6.4,8.533,6.4,14.935c0,6.399-2.134,10.667-6.4,14.934l-53.333,53.333c-4.267,4.268-8.533,6.4-14.934,6.4
			c-6.401,0-10.667-2.134-14.934-6.4C405.333,329.6,386.132,314.666,364.799,304c-6.399-4.267-12.8-10.666-12.8-19.199v-66.133
			C322.133,210.133,290.133,203.733,256,203.733z"/>
	</g>
</g>
</svg>
