<?xml version="1.0" encoding="utf-8"?>
<!-- Generator: Adobe Illustrator 16.0.0, SVG Export Plug-In . SVG Version: 6.00 Build 0)  -->
<!DOCTYPE svg PUBLIC "-//W3C//DTD SVG 1.1//EN" "http://www.w3.org/Graphics/SVG/1.1/DTD/svg11.dtd">
<svg version="1.1" id="Capa_1" xmlns="http://www.w3.org/2000/svg" xmlns:xlink="http://www.w3.org/1999/xlink" x="0px" y="0px"
	 width="595.28px" height="841.89px" viewBox="-41.64 -164.945 595.28 841.89"
	 enable-background="new -41.64 -164.945 595.28 841.89" xml:space="preserve">
<g>
	<path fill="#FFFFFF" d="M279.531,33.588c-9.605-5.432-20.972-5.255-30.409,0.433c-0.453,0.266-0.886,0.581-1.279,0.916
		l-133.35,112.81H9.841c-5.442,0-9.841,4.399-9.841,9.841v186.983c0,2.618,1.033,5.117,2.883,6.958
		c1.851,1.84,4.341,2.883,6.958,2.883l104.416-0.049l133.279,122.425c0.492,0.453,1.023,0.847,1.585,1.181
		c4.842,2.923,10.205,4.39,15.568,4.39c5.088-0.01,10.166-1.319,14.841-3.956c9.831-5.551,15.706-15.688,15.706-27.113V60.71
		C295.237,49.285,289.362,39.148,279.531,33.588z M242.851,401.369c0,3.157-1.59,5.934-4.242,7.436
		c-1.135,0.638-4.015,1.868-7.326,0.19l-98.316-90.317v-33.375c0-4.051-3.274-7.325-7.325-7.325c-4.051,0-7.326,3.274-7.326,7.325
		v29.272l-65.93,0.03V190.07h65.93v29.303c0,4.05,3.275,7.325,7.326,7.325c4.051,0,7.325-3.275,7.325-7.325v-33.229l98.2-83.072
		c3.377-1.773,6.3-0.513,7.443,0.132c2.652,1.501,4.242,4.278,4.242,7.428V401.369z"/>
	<path fill="#FFFFFF" d="M381.81,69.538c-5.146-1.742-10.736,1.014-12.488,6.161c-1.742,5.137-0.636,16.216,4.512,17.968
		C443.715,117.394,481.5,177.378,481.5,251.089c0,73.642-37.588,130.614-107.333,154.41c-5.137,1.752-6.352,15.844-4.59,21
		c1.397,4.085,5.216,6.663,9.31,6.663c1.054,0,2.126-0.168,3.179-0.531c77.707-26.503,129.924-99.456,129.924-181.532
		C512,168.935,459.684,95.981,381.81,69.538z"/>
	<path fill="#FFFFFF" d="M345,118.222c-3.767-1.275-7.857,0.742-9.14,4.508c-1.274,3.76-0.465,11.868,3.302,13.15
		c51.143,17.364,78.796,61.263,78.796,115.208c0,53.894-27.509,95.589-78.551,113.004c-3.76,1.282-4.648,11.596-3.359,15.369
		c1.022,2.989,3.817,4.876,6.813,4.876c0.771,0,1.556-0.123,2.326-0.389c56.869-19.396,95.084-72.786,95.084-132.853
		C440.28,190.965,401.992,137.574,345,118.222z"/>
</g>
</svg>
