<?xml version="1.0" encoding="utf-8"?>
<!-- Generator: Adobe Illustrator 16.0.0, SVG Export Plug-In . SVG Version: 6.00 Build 0)  -->
<!DOCTYPE svg PUBLIC "-//W3C//DTD SVG 1.1//EN" "http://www.w3.org/Graphics/SVG/1.1/DTD/svg11.dtd">
<svg version="1.1" id="Layer_1" xmlns="http://www.w3.org/2000/svg" xmlns:xlink="http://www.w3.org/1999/xlink" x="0px" y="0px"
	 width="595.279px" height="841.891px" viewBox="0 0 595.279 841.891" enable-background="new 0 0 595.279 841.891"
	 xml:space="preserve">
<g id="toolbar-add-user">
	<g id="toolbar-add-user-internal">
		<path fill="none" d="M347.246,346.535c27.397,0,49.607-22.21,49.607-49.607s-22.21-49.606-49.607-49.606
			c-27.396,0-49.606,22.209-49.606,49.606S319.85,346.535,347.246,346.535z M347.246,396.142c-54.794,0-99.213-44.419-99.213-99.213
			c0-54.794,44.419-99.213,99.213-99.213s99.214,44.419,99.214,99.213C446.46,351.723,402.04,396.142,347.246,396.142z"/>
		<polygon fill="none" points="148.82,371.338 148.82,321.731 99.213,321.731 99.213,371.338 49.607,371.338 49.607,420.945 
			99.213,420.945 99.213,470.552 148.82,470.552 148.82,420.945 198.427,420.945 198.427,371.338 		"/>
		<path fill="none" d="M198.427,594.568h297.64v-14.173c0-59.581-54.985-109.844-148.82-109.844
			c-93.834,0-148.819,50.263-148.819,109.844V594.568z M545.673,580.396v63.779H148.82v-63.779
			c0-77.055,66.143-159.45,198.427-159.45C479.531,420.945,545.673,503.341,545.673,580.396z"/>
	</g>
</g>
<g id="toolbar-add-user-dark">
	<g id="toolbar-add-user-internal_1_">
		<path fill="none" d="M347.246,346.535c27.397,0,49.607-22.21,49.607-49.607s-22.21-49.606-49.607-49.606
			c-27.396,0-49.606,22.209-49.606,49.606S319.85,346.535,347.246,346.535z M347.246,396.142c-54.794,0-99.213-44.419-99.213-99.213
			c0-54.794,44.419-99.213,99.213-99.213s99.214,44.419,99.214,99.213C446.46,351.723,402.04,396.142,347.246,396.142z"/>
		<polygon fill="none" points="148.82,371.338 148.82,321.731 99.213,321.731 99.213,371.338 49.607,371.338 49.607,420.945 
			99.213,420.945 99.213,470.552 148.82,470.552 148.82,420.945 198.427,420.945 198.427,371.338 		"/>
		<path fill="none" d="M198.427,594.568h297.64v-14.173c0-59.581-54.985-109.844-148.82-109.844
			c-93.834,0-148.819,50.263-148.819,109.844V594.568z M545.673,580.396v63.779H148.82v-63.779
			c0-77.055,66.143-159.45,198.427-159.45C479.531,420.945,545.673,503.341,545.673,580.396z"/>
	</g>
</g>
<g id="toolbar-microphone">
	<g>
		<g>
			<path id="Oval" fill="none" d="M322.444,619.372h74.41v49.606H198.427v-49.606h74.41v-51.365
				c-84.141-12.035-148.82-84.396-148.82-171.865h49.606c0,68.492,55.524,124.017,124.017,124.017s124.017-55.524,124.017-124.017
				h49.606c0,87.469-64.68,159.83-148.819,171.865V619.372z M297.64,222.519c-13.698,0-24.803,11.104-24.803,24.803v148.82
				c0,13.698,11.104,24.804,24.803,24.804s24.804-11.105,24.804-24.804v-148.82C322.444,233.623,311.338,222.519,297.64,222.519z
				 M297.64,172.912c41.096,0,74.41,33.314,74.41,74.41v148.82c0,41.096-33.314,74.41-74.41,74.41s-74.41-33.314-74.41-74.41
				v-148.82C223.23,206.226,256.544,172.912,297.64,172.912z"/>
		</g>
	</g>
</g>
<g id="toolbar-microphone-dark">
	<g>
		<g>
			<path id="Oval_1_" fill="#FFFFFF" d="M322.444,619.372h74.41v49.606H198.427v-49.606h74.41v-51.365
				c-84.141-12.035-148.82-84.396-148.82-171.865h49.606c0,68.492,55.524,124.017,124.017,124.017s124.017-55.524,124.017-124.017
				h49.606c0,87.469-64.68,159.83-148.819,171.865V619.372z M297.64,222.519c-13.698,0-24.803,11.104-24.803,24.803v148.82
				c0,13.698,11.104,24.804,24.803,24.804s24.804-11.105,24.804-24.804v-148.82C322.444,233.623,311.338,222.519,297.64,222.519z
				 M297.64,172.912c41.096,0,74.41,33.314,74.41,74.41v148.82c0,41.096-33.314,74.41-74.41,74.41s-74.41-33.314-74.41-74.41
				v-148.82C223.23,206.226,256.544,172.912,297.64,172.912z"/>
		</g>
	</g>
</g>
<g id="toolbar-microphone-off">
	<g>
		<g>
			<path fill="none" d="M412.652,526.212c-24.781,21.928-55.874,36.884-90.208,41.795v51.365h74.41v49.606H198.427v-49.606h74.41
				v-51.365c-84.141-12.035-148.82-84.396-148.82-171.865h49.606c0,68.492,55.524,124.017,124.017,124.017
				c30.413,0,58.269-10.947,79.842-29.116L412.652,526.212z M444.844,488.25l-36.382-36.383
				c8.44-16.754,13.194-35.685,13.194-55.726h49.606C471.263,429.978,461.584,461.553,444.844,488.25L444.844,488.25z
				 M370.03,413.436l-47.586-47.587V247.322c0-13.699-11.105-24.803-24.804-24.803s-24.803,11.104-24.803,24.803v68.92
				l-49.607-49.606v-19.314c0-41.096,33.314-74.41,74.41-74.41s74.41,33.314,74.41,74.41v148.82
				C372.05,402.096,371.351,407.886,370.03,413.436L370.03,413.436z M342.189,455.748c-12.42,9.297-27.842,14.804-44.549,14.804
				c-41.096,0-74.41-33.314-74.41-74.41V336.79l49.607,49.606v9.745c0,13.698,11.104,24.804,24.803,24.804
				c2.917,0,5.717-0.504,8.316-1.429L342.189,455.748L342.189,455.748z"/>
			<polygon fill="none" points="32.068,215.253 474.676,657.861 509.753,622.784 67.146,180.176 			"/>
		</g>
	</g>
</g>
<g id="toolbar-microphone-off-dark">
	<g>
		<g>
			<path fill="none" d="M412.652,526.212c-24.781,21.928-55.874,36.884-90.208,41.795v51.365h74.41v49.606H198.427v-49.606h74.41
				v-51.365c-84.141-12.035-148.82-84.396-148.82-171.865h49.606c0,68.492,55.524,124.017,124.017,124.017
				c30.413,0,58.269-10.947,79.842-29.116L412.652,526.212z M444.844,488.25l-36.382-36.383
				c8.44-16.754,13.194-35.685,13.194-55.726h49.606C471.263,429.978,461.584,461.553,444.844,488.25L444.844,488.25z
				 M370.03,413.436l-47.586-47.587V247.322c0-13.699-11.105-24.803-24.804-24.803s-24.803,11.104-24.803,24.803v68.92
				l-49.607-49.606v-19.314c0-41.096,33.314-74.41,74.41-74.41s74.41,33.314,74.41,74.41v148.82
				C372.05,402.096,371.351,407.886,370.03,413.436L370.03,413.436z M342.189,455.748c-12.42,9.297-27.842,14.804-44.549,14.804
				c-41.096,0-74.41-33.314-74.41-74.41V336.79l49.607,49.606v9.745c0,13.698,11.104,24.804,24.803,24.804
				c2.917,0,5.717-0.504,8.316-1.429L342.189,455.748L342.189,455.748z"/>
			<polygon fill="none" points="32.068,215.253 474.676,657.861 509.753,622.784 67.146,180.176 			"/>
		</g>
	</g>
</g>
<g id="toolbar-camera">
	<g>
		<g>
			<path fill="none" d="M545.673,247.322l-124.017,57.246v-7.64c0-27.383-22.224-49.606-49.606-49.606H99.213
				c-27.383,0-49.606,22.224-49.606,49.606v248.034c0,27.383,22.224,49.606,49.606,49.606H372.05
				c27.383,0,49.606-22.224,49.606-49.606v-7.64l124.017,57.246V247.322z M372.05,296.928v7.64v77.535l70.392-32.492l53.625-24.754
				v192.176l-53.625-24.754l-70.392-32.492v77.535v7.64H99.213V296.928H372.05L372.05,296.928z"/>
		</g>
	</g>
</g>
<g id="toolbar-camera-dark">
	<g>
		<g>
			<path fill="none" d="M545.673,247.322l-124.017,57.246v-7.64c0-27.383-22.224-49.606-49.606-49.606H99.213
				c-27.383,0-49.606,22.224-49.606,49.606v248.034c0,27.383,22.224,49.606,49.606,49.606H372.05
				c27.383,0,49.606-22.224,49.606-49.606v-7.64l124.017,57.246V247.322z M372.05,296.928v7.64v77.535l70.392-32.492l53.625-24.754
				v192.176l-53.625-24.754l-70.392-32.492v77.535v7.64H99.213V296.928H372.05L372.05,296.928z"/>
		</g>
	</g>
</g>
<g id="toolbar-camera-off">
	<g>
		<path fill="none" d="M133.767,247.322H99.216c-27.383,0-49.606,22.224-49.606,49.606v248.034
			c0,27.383,22.224,49.606,49.606,49.606h272.836c27.384,0,49.607-22.224,49.607-49.606v-7.64v-2.108L133.767,247.322z
			 M545.676,247.322l-124.017,57.246v-7.64c0-27.383-22.224-49.606-49.607-49.606H203.91l341.766,341.765V247.322z M496.07,324.857
			v144.455l-98.842-98.841l45.217-20.859L496.07,324.857L496.07,324.857z M113.205,296.928l248.033,248.034H99.216V296.928H113.205
			L113.205,296.928z M372.052,296.928v7.64v40.727l-48.366-48.367H372.052L372.052,296.928z"/>
		<polygon fill="none" points="32.068,215.253 474.676,657.861 509.753,622.784 67.146,180.176 		"/>
	</g>
</g>
<g id="toolbar-camera-off-dark">
	<g>
		<path fill="none" d="M133.767,247.322H99.216c-27.383,0-49.606,22.224-49.606,49.606v248.034
			c0,27.383,22.224,49.606,49.606,49.606h272.836c27.384,0,49.607-22.224,49.607-49.606v-7.64v-2.108L133.767,247.322z
			 M545.676,247.322l-124.017,57.246v-7.64c0-27.383-22.224-49.606-49.607-49.606H203.91l341.766,341.765V247.322z M496.07,324.857
			v144.455l-98.842-98.841l45.217-20.859L496.07,324.857L496.07,324.857z M113.205,296.928l248.033,248.034H99.216V296.928H113.205
			L113.205,296.928z M372.052,296.928v7.64v40.727l-48.366-48.367H372.052L372.052,296.928z"/>
		<polygon fill="none" points="32.068,215.253 474.676,657.861 509.753,622.784 67.146,180.176 		"/>
	</g>
</g>
<g id="toolbar-screenshare">
	<g>
		<path fill="none" d="M372.05,569.766v49.606h74.41v49.606H148.82v-49.606h74.41v-49.606H99.213
			c-27.396,0-49.606-22.21-49.606-49.607V247.322c0-27.397,22.21-49.607,49.606-49.607h396.854c27.397,0,49.606,22.21,49.606,49.607
			v272.836c0,27.397-22.209,49.607-49.606,49.607H372.05L372.05,569.766z M99.213,247.322v272.836h396.854V247.322H99.213z"/>
	</g>
</g>
<g id="toolbar-screenshare-dark">
	<g>
		<path fill="none" d="M372.05,569.766v49.606h74.41v49.606H148.82v-49.606h74.41v-49.606H99.213
			c-27.396,0-49.606-22.21-49.606-49.607V247.322c0-27.397,22.21-49.607,49.606-49.607h396.854c27.397,0,49.606,22.21,49.606,49.607
			v272.836c0,27.397-22.209,49.607-49.606,49.607H372.05L372.05,569.766z M99.213,247.322v272.836h396.854V247.322H99.213z"/>
	</g>
</g>
<g id="toolbar-stickers">
	<g>
		<g>
			<path fill="none" d="M297.64,619.372c109.588,0,198.427-88.839,198.427-198.427c0-109.588-88.839-198.427-198.427-198.427
				S99.213,311.357,99.213,420.945C99.213,530.533,188.052,619.372,297.64,619.372z M297.64,668.979
				c-136.984,0-248.033-111.049-248.033-248.033c0-136.985,111.049-248.034,248.033-248.034
				c136.985,0,248.033,111.048,248.033,248.034C545.673,557.93,434.625,668.979,297.64,668.979z"/>
			<circle fill="none" cx="210.828" cy="383.74" r="37.205"/>
			<circle fill="none" cx="384.451" cy="383.74" r="37.205"/>
			<path fill="none" d="M383.58,470.552h54.411c-20.43,57.802-75.555,99.214-140.352,99.214s-119.922-41.412-140.352-99.214h54.411
				c17.154,29.655,49.218,49.606,85.94,49.606S366.426,500.207,383.58,470.552L383.58,470.552z"/>
		</g>
	</g>
</g>
<g id="toolbar-stickers-dark">
	<g>
		<g>
			<path fill="none" d="M297.64,619.372c109.588,0,198.427-88.839,198.427-198.427c0-109.588-88.839-198.427-198.427-198.427
				S99.213,311.357,99.213,420.945C99.213,530.533,188.052,619.372,297.64,619.372z M297.64,668.979
				c-136.984,0-248.033-111.049-248.033-248.033c0-136.985,111.049-248.034,248.033-248.034
				c136.985,0,248.033,111.048,248.033,248.034C545.673,557.93,434.625,668.979,297.64,668.979z"/>
			<circle fill="none" cx="210.828" cy="383.74" r="37.205"/>
			<circle fill="none" cx="384.451" cy="383.74" r="37.205"/>
			<path fill="none" d="M383.58,470.552h54.411c-20.43,57.802-75.555,99.214-140.352,99.214s-119.922-41.412-140.352-99.214h54.411
				c17.154,29.655,49.218,49.606,85.94,49.606S366.426,500.207,383.58,470.552L383.58,470.552z"/>
		</g>
	</g>
</g>
<g id="toolbar-chat">
	<g>
		<g>
			<path fill="none" d="M372.05,495.355h99.213v-223.23H124.017v223.23h128.398L372.05,560.61V495.355z M421.656,644.175
				l-181.891-99.213H124.017c-27.397,0-49.606-22.21-49.606-49.606v-223.23c0-27.397,22.209-49.606,49.606-49.606h347.246
				c27.397,0,49.607,22.209,49.607,49.606v223.23c0,27.396-22.21,49.606-49.607,49.606h-49.606V644.175z"/>
		</g>
	</g>
</g>
<g id="toolbar-chat-dark">
	<g>
		<g>
			<path fill="none" d="M372.05,495.355h99.213v-223.23H124.017v223.23h128.398L372.05,560.61V495.355z M421.656,644.175
				l-181.891-99.213H124.017c-27.397,0-49.606-22.21-49.606-49.606v-223.23c0-27.397,22.209-49.606,49.606-49.606h347.246
				c27.397,0,49.607,22.209,49.607,49.606v223.23c0,27.396-22.21,49.606-49.607,49.606h-49.606V644.175z"/>
		</g>
	</g>
</g>
<g id="toolbar-settings">
	<g>
		<g>
			<path fill="none" d="M211.41,299.638l-36.541-36.541l-35.077,35.077l36.541,36.541c-12.77,17.931-21.662,38.814-25.455,61.426
				H99.213v49.606h51.665c3.942,23.502,13.394,45.136,26.979,63.529l-35.898,37.174l35.685,34.46l35.896-37.171
				c17.447,11.973,37.574,20.323,59.298,23.967v51.665h49.606v-51.665c22.611-3.793,43.495-12.686,61.426-25.455l36.541,36.541
				l35.077-35.077l-36.541-36.541c12.77-17.932,21.662-38.814,25.456-61.427h51.664v-49.606h-51.664
				c-3.943-23.501-13.395-45.135-26.98-63.529l35.898-37.174l-35.684-34.459L381.74,298.15
				c-17.447-11.972-37.574-20.323-59.297-23.967v-51.664h-49.606v51.664C250.225,277.976,229.342,286.869,211.41,299.638z
				 M223.23,222.519c0-27.397,22.21-49.607,49.607-49.607h49.606c27.396,0,49.606,22.209,49.606,49.607v14.255l9.902-10.255
				c19.032-19.708,50.437-20.256,70.144-1.224l35.685,34.459c19.708,19.032,20.256,50.436,1.225,70.144l-10.031,10.387
				c0.921,2.067,1.806,4.151,2.655,6.25h14.438c27.397,0,49.606,22.209,49.606,49.606v49.606c0,27.397-22.209,49.607-49.606,49.607
				h-14.438c-0.416,1.028-0.841,2.053-1.274,3.073l10.21,10.209c19.373,19.373,19.373,50.782,0,70.155l-35.077,35.077
				c-19.373,19.372-50.782,19.372-70.154,0l-10.21-10.21c-1.021,0.434-2.045,0.858-3.073,1.274v14.438
				c0,27.396-22.21,49.606-49.606,49.606h-49.606c-27.397,0-49.607-22.21-49.607-49.606v-14.256l-9.902,10.255
				c-19.031,19.708-50.436,20.256-70.144,1.225l-35.685-34.46c-19.707-19.032-20.256-50.437-1.224-70.144l10.03-10.388
				c-0.921-2.067-1.806-4.15-2.655-6.249H99.213c-27.396,0-49.606-22.21-49.606-49.607v-49.606c0-27.397,22.21-49.606,49.606-49.606
				h14.438c0.416-1.028,0.841-2.053,1.274-3.074l-10.21-10.209c-19.372-19.373-19.372-50.782,0-70.154l35.077-35.077
				c19.373-19.373,50.782-19.373,70.155,0l10.209,10.209c1.021-0.434,2.045-0.858,3.073-1.274V222.519z"/>
			<path fill="none" d="M297.64,459.528c21.309,0,38.583-17.274,38.583-38.583s-17.274-38.583-38.583-38.583
				s-38.583,17.274-38.583,38.583S276.331,459.528,297.64,459.528z M297.64,509.135c-48.706,0-88.189-39.484-88.189-88.189
				c0-48.706,39.483-88.19,88.189-88.19s88.189,39.484,88.189,88.19C385.829,469.65,346.346,509.135,297.64,509.135z"/>
		</g>
	</g>
</g>
<g id="toolbar-settings-dark">
	<g>
		<g>
			<path fill="none" d="M211.41,299.638l-36.541-36.541l-35.077,35.077l36.541,36.541c-12.77,17.931-21.662,38.814-25.455,61.426
				H99.213v49.606h51.665c3.942,23.502,13.394,45.136,26.979,63.529l-35.898,37.174l35.685,34.46l35.896-37.171
				c17.447,11.973,37.574,20.323,59.298,23.967v51.665h49.606v-51.665c22.611-3.793,43.495-12.686,61.426-25.455l36.541,36.541
				l35.077-35.077l-36.541-36.541c12.77-17.932,21.662-38.814,25.456-61.427h51.664v-49.606h-51.664
				c-3.943-23.501-13.395-45.135-26.98-63.529l35.898-37.174l-35.684-34.459L381.74,298.15
				c-17.447-11.972-37.574-20.323-59.297-23.967v-51.664h-49.606v51.664C250.225,277.976,229.342,286.869,211.41,299.638z
				 M223.23,222.519c0-27.397,22.21-49.607,49.607-49.607h49.606c27.396,0,49.606,22.209,49.606,49.607v14.255l9.902-10.255
				c19.032-19.708,50.437-20.256,70.144-1.224l35.685,34.459c19.708,19.032,20.256,50.436,1.225,70.144l-10.031,10.387
				c0.921,2.067,1.806,4.151,2.655,6.25h14.438c27.397,0,49.606,22.209,49.606,49.606v49.606c0,27.397-22.209,49.607-49.606,49.607
				h-14.438c-0.416,1.028-0.841,2.053-1.274,3.073l10.21,10.209c19.373,19.373,19.373,50.782,0,70.155l-35.077,35.077
				c-19.373,19.372-50.782,19.372-70.154,0l-10.21-10.21c-1.021,0.434-2.045,0.858-3.073,1.274v14.438
				c0,27.396-22.21,49.606-49.606,49.606h-49.606c-27.397,0-49.607-22.21-49.607-49.606v-14.256l-9.902,10.255
				c-19.031,19.708-50.436,20.256-70.144,1.225l-35.685-34.46c-19.707-19.032-20.256-50.437-1.224-70.144l10.03-10.388
				c-0.921-2.067-1.806-4.15-2.655-6.249H99.213c-27.396,0-49.606-22.21-49.606-49.607v-49.606c0-27.397,22.21-49.606,49.606-49.606
				h14.438c0.416-1.028,0.841-2.053,1.274-3.074l-10.21-10.209c-19.372-19.373-19.372-50.782,0-70.154l35.077-35.077
				c19.373-19.373,50.782-19.373,70.155,0l10.209,10.209c1.021-0.434,2.045-0.858,3.073-1.274V222.519z"/>
			<path fill="none" d="M297.64,459.528c21.309,0,38.583-17.274,38.583-38.583s-17.274-38.583-38.583-38.583
				s-38.583,17.274-38.583,38.583S276.331,459.528,297.64,459.528z M297.64,509.135c-48.706,0-88.189-39.484-88.189-88.189
				c0-48.706,39.483-88.19,88.189-88.19s88.189,39.484,88.189,88.19C385.829,469.65,346.346,509.135,297.64,509.135z"/>
		</g>
	</g>
</g>
<g id="toolbar-notes">
	<g>
		<rect x="198.427" y="520.158" fill="none" width="99.213" height="49.607"/>
		<rect x="198.427" y="420.945" fill="none" width="198.427" height="49.606"/>
		<path fill="none" d="M148.82,222.519v396.854H446.46V321.731l-99.214-99.213H148.82z M148.82,172.912h198.427
			c13.157,0,25.774,5.227,35.077,14.529l99.214,99.213c9.303,9.303,14.529,21.921,14.529,35.077v297.641
			c0,27.396-22.21,49.606-49.606,49.606H148.82c-27.396,0-49.606-22.21-49.606-49.606V222.519
			C99.213,195.121,121.423,172.912,148.82,172.912z"/>
		<path fill="none" d="M297.64,173.344h49.606v148.243h147.907v49.607H347.246c-27.396,0-49.606-22.21-49.606-49.607V173.344z"/>
	</g>
</g>
<g id="toolbar-notes-dark">
	<g>
		<rect x="198.427" y="520.158" fill="none" width="99.213" height="49.607"/>
		<rect x="198.427" y="420.945" fill="none" width="198.427" height="49.606"/>
		<path fill="none" d="M148.82,222.519v396.854H446.46V321.731l-99.214-99.213H148.82z M148.82,172.912h198.427
			c13.157,0,25.774,5.227,35.077,14.529l99.214,99.213c9.303,9.303,14.529,21.921,14.529,35.077v297.641
			c0,27.396-22.21,49.606-49.606,49.606H148.82c-27.396,0-49.606-22.21-49.606-49.606V222.519
			C99.213,195.121,121.423,172.912,148.82,172.912z"/>
		<path fill="none" d="M297.64,173.344h49.606v148.243h147.907v49.607H347.246c-27.396,0-49.606-22.21-49.606-49.607V173.344z"/>
	</g>
</g>
<g id="toolbar-leave">
	<g>
		<circle fill="none" cx="297.641" cy="420.946" r="297.64"/>
		<polygon fill="none" points="332.717,420.945 439.196,314.467 404.118,279.39 297.64,385.868 191.162,279.39 156.085,314.467 
			262.563,420.945 156.085,527.423 191.162,562.5 297.64,456.022 404.118,562.5 439.196,527.423 		"/>
	</g>
</g>
<g id="toolbar-leave-dark">
	<g>
		<circle fill="none" cx="297.641" cy="420.946" r="297.64"/>
		<polygon fill="none" points="332.717,420.945 439.196,314.467 404.118,279.39 297.64,385.868 191.162,279.39 156.085,314.467 
			262.563,420.945 156.085,527.423 191.162,562.5 297.64,456.022 404.118,562.5 439.196,527.423 		"/>
	</g>
</g>
<g id="toolbar-lock-closed">
	<g>
		<g>
			<path fill="none" d="M148.82,371.338v-49.607c0-82.191,66.63-148.82,148.82-148.82c82.191,0,148.82,66.629,148.82,148.82v49.607
				c27.396,0,49.606,22.209,49.606,49.607v198.427c0,27.396-22.21,49.606-49.606,49.606H148.82
				c-27.396,0-49.606-22.21-49.606-49.606V420.945C99.213,393.548,121.423,371.338,148.82,371.338z M148.82,420.945v198.427H446.46
				V420.945H148.82z M396.854,321.731c0-54.794-44.42-99.213-99.214-99.213s-99.213,44.419-99.213,99.213v49.656l198.427,0.148
				V321.731z M272.837,470.552h49.606v99.214h-49.606V470.552z"/>
		</g>
	</g>
</g>
<g id="toolbar-lock-closed-dark">
	<g>
		<g>
			<path fill="none" d="M148.82,371.338v-49.607c0-82.191,66.63-148.82,148.82-148.82c82.191,0,148.82,66.629,148.82,148.82v49.607
				c27.396,0,49.606,22.209,49.606,49.607v198.427c0,27.396-22.21,49.606-49.606,49.606H148.82
				c-27.396,0-49.606-22.21-49.606-49.606V420.945C99.213,393.548,121.423,371.338,148.82,371.338z M148.82,420.945v198.427H446.46
				V420.945H148.82z M396.854,321.731c0-54.794-44.42-99.213-99.214-99.213s-99.213,44.419-99.213,99.213v49.656l198.427,0.148
				V321.731z M272.837,470.552h49.606v99.214h-49.606V470.552z"/>
		</g>
	</g>
</g>
<g id="toolbar-lock-open">
	<g>
		<g>
			<path fill="none" d="M297.64,371.338h248.033c27.397,0,49.606,22.209,49.606,49.607v198.427
				c0,27.396-22.209,49.606-49.606,49.606h-297.64c-27.397,0-49.606-22.21-49.606-49.606V420.945
				c0-27.397,22.209-49.607,49.606-49.607v-49.607c0-54.794-44.419-99.213-99.214-99.213c-54.794,0-99.213,44.419-99.213,99.213
				v49.656L0,371.351v-49.62c0-82.191,66.629-148.82,148.819-148.82c82.191,0,148.82,66.629,148.82,148.82V371.338z
				 M248.033,420.945v198.427h297.64V420.945H248.033z"/>
			<rect x="372.05" y="470.552" fill="none" width="49.606" height="99.214"/>
		</g>
	</g>
</g>
<g id="toolbar-lock-open-dark">
	<g>
		<g>
			<path fill="none" d="M297.64,371.338h248.033c27.397,0,49.606,22.209,49.606,49.607v198.427
				c0,27.396-22.209,49.606-49.606,49.606h-297.64c-27.397,0-49.606-22.21-49.606-49.606V420.945
				c0-27.397,22.209-49.607,49.606-49.607v-49.607c0-54.794-44.419-99.213-99.214-99.213c-54.794,0-99.213,44.419-99.213,99.213
				v49.656L0,371.351v-49.62c0-82.191,66.629-148.82,148.819-148.82c82.191,0,148.82,66.629,148.82,148.82V371.338z
				 M248.033,420.945v198.427h297.64V420.945H248.033z"/>
			<rect x="372.05" y="470.552" fill="none" width="49.606" height="99.214"/>
		</g>
	</g>
</g>
<g id="toolbar-recording">
	<g>
		<g>
			<path fill="none" d="M297.64,619.372c109.588,0,198.427-88.839,198.427-198.427c0-109.588-88.839-198.427-198.427-198.427
				S99.213,311.357,99.213,420.945C99.213,530.533,188.052,619.372,297.64,619.372z M297.64,668.979
				c-136.984,0-248.033-111.049-248.033-248.033c0-136.985,111.049-248.034,248.033-248.034
				c136.985,0,248.033,111.048,248.033,248.034C545.673,557.93,434.625,668.979,297.64,668.979z"/>
			<circle fill="none" cx="297.64" cy="420.945" r="99.213"/>
		</g>
	</g>
</g>
<g id="toolbar-recording-dark">
	<g>
		<g>
			<path fill="none" d="M297.64,619.372c109.588,0,198.427-88.839,198.427-198.427c0-109.588-88.839-198.427-198.427-198.427
				S99.213,311.357,99.213,420.945C99.213,530.533,188.052,619.372,297.64,619.372z M297.64,668.979
				c-136.984,0-248.033-111.049-248.033-248.033c0-136.985,111.049-248.034,248.033-248.034
				c136.985,0,248.033,111.048,248.033,248.034C545.673,557.93,434.625,668.979,297.64,668.979z"/>
			<circle fill="none" cx="297.64" cy="420.945" r="99.213"/>
		</g>
	</g>
</g>
<g id="toolbar-recording-red">
	<g>
		<g>
			<path fill="none" d="M297.64,619.372c109.588,0,198.427-88.839,198.427-198.427c0-109.588-88.839-198.427-198.427-198.427
				S99.213,311.357,99.213,420.945C99.213,530.533,188.052,619.372,297.64,619.372z M297.64,668.979
				c-136.984,0-248.033-111.049-248.033-248.033c0-136.985,111.049-248.034,248.033-248.034
				c136.985,0,248.033,111.048,248.033,248.034C545.673,557.93,434.625,668.979,297.64,668.979z"/>
			<circle fill="none" cx="297.64" cy="420.945" r="148.82"/>
		</g>
	</g>
</g>
</svg>
