<?xml version="1.0" encoding="utf-8"?>
<!-- Generator: Adobe Illustrator 16.0.0, SVG Export Plug-In . SVG Version: 6.00 Build 0)  -->
<!DOCTYPE svg PUBLIC "-//W3C//DTD SVG 1.1//EN" "http://www.w3.org/Graphics/SVG/1.1/DTD/svg11.dtd">
<svg version="1.1" id="Capa_1" xmlns="http://www.w3.org/2000/svg" xmlns:xlink="http://www.w3.org/1999/xlink" x="0px" y="0px"
	 width="512px" height="512px" viewBox="0 0 512 512" enable-background="new 0 0 512 512" xml:space="preserve">
<g>
	<g id="call">
		<path fill="#42CC1B" d="M136.9,229.533c30.878,61.756,83.811,112.483,145.566,145.566l48.522-48.521
			c6.616-6.616,15.439-8.821,22.056-4.411c24.262,8.821,50.727,13.233,79.399,13.233c13.234,0,22.057,8.821,22.057,22.055v74.989
			c0,13.233-8.822,22.056-22.057,22.056C225.122,454.5,57.5,286.878,57.5,79.556c0-13.233,8.822-22.056,22.056-22.056h77.194
			c13.233,0,22.056,8.822,22.056,22.056c0,26.466,4.411,52.933,13.233,79.4c2.206,6.616,0,15.438-4.411,22.055L136.9,229.533z"/>
	</g>
</g>
</svg>
