<?xml version="1.0" encoding="utf-8"?>
<!-- Generator: Adobe Illustrator 16.0.0, SVG Export Plug-In . SVG Version: 6.00 Build 0)  -->
<!DOCTYPE svg PUBLIC "-//W3C//DTD SVG 1.1//EN" "http://www.w3.org/Graphics/SVG/1.1/DTD/svg11.dtd">
<svg version="1.1" id="Capa_1" xmlns="http://www.w3.org/2000/svg" xmlns:xlink="http://www.w3.org/1999/xlink" x="0px" y="0px"
	 width="512px" height="512px" viewBox="0 0 512 512" enable-background="new 0 0 512 512" xml:space="preserve">
<g>
	<g>
		<g>
			<path fill="#FFFFFF" d="M469.333,123.733v-17.067c0-4.712-3.821-8.533-8.533-8.533h-51.2c-4.713,0-8.533,3.821-8.533,8.533
				v17.067h-20.643l-21.854-38.229C350.963,72.222,336.834,64.019,321.528,64H190.473c-15.307,0.019-29.437,8.222-37.044,21.504
				l-21.854,38.229H128v-25.6c0-4.712-3.821-8.533-8.533-8.533H51.2c-4.713,0-8.534,3.821-8.534,8.533v25.6
				C19.115,123.761,0.028,142.848,0,166.4v238.933c0.027,23.553,19.114,42.64,42.666,42.667h426.667
				c23.552-0.027,42.639-19.114,42.667-42.667V166.4C511.972,142.848,492.885,123.761,469.333,123.733z"/>
			<path fill="#444444" d="M370.7,303.471c-0.007-0.003-0.014-0.005-0.021-0.008c-4.401-1.683-9.333,0.522-11.017,4.924
				c-21.939,57.203-86.099,85.789-143.302,63.85c-38.479-14.759-65.604-49.633-70.44-90.56l20.83,20.83
				c3.274,3.39,8.676,3.483,12.065,0.209c3.391-3.274,3.484-8.677,0.209-12.066c-0.067-0.071-0.139-0.141-0.209-0.209
				l-36.207-36.207c-3.332-3.331-8.733-3.331-12.065,0l-36.25,36.207c-3.274,3.39-3.181,8.792,0.209,12.066
				c3.307,3.194,8.551,3.194,11.857,0l22.187-22.187c6.382,70.404,68.628,122.304,139.032,115.922
				c48.643-4.408,90.534-36.114,107.99-81.73C377.274,310.119,375.094,305.176,370.7,303.471z"/>
			<path fill="#444444" d="M405.85,234.884c-0.072,0.068-0.142,0.139-0.21,0.209l-22.187,22.187
				c-6.368-70.406-68.604-122.317-139.01-115.949c-48.847,4.418-90.875,36.361-108.209,82.242c-1.666,4.409,0.558,9.333,4.967,11
				c4.408,1.666,9.333-0.558,10.999-4.966c21.697-57.296,85.733-86.156,143.029-64.46c38.73,14.667,66.067,49.687,70.893,90.819
				l-20.83-20.873c-3.273-3.39-8.676-3.484-12.065-0.209c-3.391,3.273-3.484,8.676-0.209,12.066
				c0.067,0.072,0.139,0.141,0.209,0.209l36.207,36.207c3.332,3.331,8.733,3.331,12.065,0l36.207-36.207
				c3.39-3.274,3.483-8.676,0.209-12.066C414.642,231.704,409.24,231.609,405.85,234.884z"/>
		</g>
	</g>
</g>
</svg>
