<?xml version="1.0" encoding="utf-8"?>
<!-- Generator: Adobe Illustrator 16.0.0, SVG Export Plug-In . SVG Version: 6.00 Build 0)  -->
<!DOCTYPE svg PUBLIC "-//W3C//DTD SVG 1.1//EN" "http://www.w3.org/Graphics/SVG/1.1/DTD/svg11.dtd">
<svg version="1.1" id="Capa_1" xmlns="http://www.w3.org/2000/svg" xmlns:xlink="http://www.w3.org/1999/xlink" x="0px" y="0px"
	 width="512px" height="512px" viewBox="0 0 512 512" enable-background="new 0 0 512 512" xml:space="preserve">
<g id="toolbar-camera-dark">
	<g>
		<g>
			<path fill="#FFFFFF" d="M503.673,83.322l-124.017,57.246v-7.64c0-27.383-22.224-49.606-49.606-49.606H57.213
				c-27.383,0-49.606,22.224-49.606,49.606v248.034c0,27.383,22.224,49.606,49.606,49.606H330.05
				c27.383,0,49.606-22.224,49.606-49.606v-7.64l124.017,57.246V83.322z M330.05,132.928v7.64v77.535l70.392-32.492l53.625-24.754
				v192.176l-53.625-24.754l-70.392-32.492v77.535v7.64H57.213V132.928H330.05L330.05,132.928z"/>
		</g>
	</g>
</g>
</svg>
