<?xml version="1.0" encoding="utf-8"?>
<!-- Generator: Adobe Illustrator 16.0.0, SVG Export Plug-In . SVG Version: 6.00 Build 0)  -->
<!DOCTYPE svg PUBLIC "-//W3C//DTD SVG 1.1//EN" "http://www.w3.org/Graphics/SVG/1.1/DTD/svg11.dtd">
<svg version="1.1" id="Capa_1" xmlns="http://www.w3.org/2000/svg" xmlns:xlink="http://www.w3.org/1999/xlink" x="0px" y="0px"
	 width="512px" height="512px" viewBox="0 0 512 512" enable-background="new 0 0 512 512" xml:space="preserve">
<g id="toolbar-camera-off-dark">
	<g>
		<path fill="#FFFFFF" d="M100.767,85.322H66.216c-27.383,0-49.606,22.224-49.606,49.606v248.034
			c0,27.383,22.224,49.606,49.606,49.606h272.836c27.384,0,49.607-22.224,49.607-49.606v-7.64v-2.108L100.767,85.322z
			 M512.676,85.322l-124.017,57.246v-7.64c0-27.383-22.224-49.606-49.607-49.606H170.91l341.766,341.765V85.322z M463.07,162.857
			v144.455l-98.842-98.841l45.217-20.859L463.07,162.857L463.07,162.857z M80.205,134.928l248.033,248.034H66.216V134.928H80.205
			L80.205,134.928z M339.052,134.928v7.64v40.727l-48.366-48.367H339.052L339.052,134.928z"/>
		<polygon fill="#FFFFFF" points="-0.932,53.253 441.676,495.861 476.753,460.784 34.146,18.176 		"/>
	</g>
</g>
</svg>
